<svg width="25" height="43" viewBox="0 0 25 43" fill="none" xmlns="http://www.w3.org/2000/svg">
<path d="M24.1071 10.3917C23.8394 10.0896 23.5044 9.66678 23.2348 9.23116C23.1732 9.13196 23.2444 9.09017 23.2248 9.04264C23.1897 8.95638 23.0237 8.88985 23.0116 8.87496C22.9289 8.7737 23.0723 8.72258 23.0656 8.70532C22.9831 8.51179 22.8944 8.66198 22.7591 8.52542C22.5825 8.34796 22.3935 8.09005 22.1932 7.86398C22.1214 7.78285 22.2366 7.74415 22.0697 7.58293C21.9532 7.46887 21.5109 7.20236 21.436 6.94811C21.4698 6.91073 21.5297 6.89103 21.5747 6.86216C21.1878 6.78363 21.1107 6.69699 20.7927 6.34367C20.757 6.30436 20.6914 6.30146 20.6279 6.26385C20.6013 6.24815 20.5753 6.2265 20.5519 6.19375C20.4724 6.08268 20.557 5.97889 20.3519 5.80686C20.2788 5.7463 20.1748 5.78126 20.0622 5.69328C19.7417 5.43897 19.1958 4.87231 18.9234 4.67808C18.3878 4.29089 18.0036 4.23683 17.5353 3.9033C17.4988 3.87798 17.6343 3.83654 17.5644 3.79466C17.494 3.75249 17.3526 3.83035 17.3338 3.82379C17.1306 3.74999 16.8021 3.38251 16.681 3.35251C16.3918 3.2797 16.6297 3.45092 16.2506 3.31334C15.8918 3.18471 15.4548 2.83744 15.0923 2.69404C14.6712 2.52802 14.4741 2.74699 14.2048 2.40978C13.0398 2.16816 11.8319 2.08374 10.6192 2.09852C10.6227 2.04489 10.6267 1.99124 10.6309 1.93762C10.6027 1.9484 10.5744 1.95924 10.5461 1.97013C10.4782 1.99671 10.411 2.02372 10.3444 2.05096C10.3579 2.01079 10.3709 1.97061 10.3847 1.93089C9.93859 2.09279 9.55651 2.19283 9.0425 2.21011C9.03242 2.2105 9.04605 2.10121 9.03746 2.09946C8.91947 2.09305 8.80013 2.19212 8.69741 2.18787C8.44806 2.17565 7.98825 2.02936 8.22475 2.27379C7.64739 2.32211 7.02464 2.59744 6.5002 2.73952C6.27273 2.80087 6.14246 2.67367 6.03254 2.70946C5.92316 2.74604 6.03484 2.85609 6.00011 2.8773C5.79091 3.00182 5.4371 3.17412 5.32367 3.05168C5.31024 3.13203 5.29567 3.21432 5.284 3.29504C5.22142 3.11755 4.6068 3.56158 4.44653 3.67396C4.41629 3.6933 4.36787 3.63072 4.34566 3.64678C4.09975 3.82846 4.11299 3.97353 3.93437 4.16199C3.87215 4.22916 3.8963 4.03225 3.751 4.22437C3.73891 4.24164 3.82353 4.33041 3.61237 4.50665C3.27053 4.78585 2.70571 5.41139 2.31829 5.77563C2.28634 5.80542 2.26945 5.61556 2.1638 5.78776C2.12746 5.84744 2.21283 5.88244 2.12497 6.00246C2.12207 6.00669 2.11886 6.01103 2.11532 6.01551C1.82826 6.34043 1.68542 7.00075 1.91905 7.6227C1.80788 7.62343 1.63635 7.40526 1.78074 7.75353C1.80423 7.80431 1.8899 7.74212 1.89903 7.76495C1.97131 7.94589 1.95878 8.15308 2.06547 8.35369C2.0972 8.41235 2.17485 8.40277 2.21962 8.47475C2.28656 8.58116 2.20355 8.67179 2.3017 8.79558C2.45307 8.97772 2.55769 8.96151 2.4876 9.3083C3.16282 10.7827 4.07832 12.1793 4.87473 13.6389C5.18294 14.0247 5.46707 14.354 5.76004 14.7748C5.84412 14.8953 5.7417 14.9929 5.90692 15.1671C5.94349 15.2059 6.27264 15.4456 6.06645 15.6435C6.14397 15.7202 6.18081 15.7764 6.24139 15.8436C6.23959 15.7643 6.23675 15.6825 6.23592 15.6039C6.40324 15.9496 6.65272 16.1567 6.87572 16.4194C7.03961 16.6127 6.84262 16.5273 6.93465 16.6492C7.02617 16.7711 7.0862 16.815 7.06726 17.0535C7.28799 17.091 7.24327 17.2377 7.38879 17.4756C7.40494 17.5018 7.55054 17.6113 7.61644 17.7397C7.66375 17.832 7.59248 17.913 7.69369 18.0436C7.71005 18.0649 8.0042 18.2917 8.07328 18.3801C8.18054 18.5163 8.21245 18.8187 8.2287 18.848C8.46449 19.2719 8.6751 19.3645 8.67032 19.7702C8.81597 19.7625 9.02994 19.9694 9.1396 20.1756C9.27902 20.4361 9.35364 21.0758 9.63287 21.0049C9.69889 21.3612 9.74605 21.2903 9.95068 21.6394C10.1383 21.956 10.5223 22.8593 10.6758 23.1144C10.8307 23.3692 10.8972 23.1684 10.9715 23.2632C11.094 23.4195 10.9439 23.3799 11.0081 23.497C11.1897 23.8289 11.3578 24.1064 11.5653 24.4077C11.5027 24.461 11.4404 24.5157 11.3781 24.5695C11.4102 24.5742 11.4424 24.5789 11.4745 24.5837C11.5085 24.6534 11.5486 24.7304 11.5781 24.7958C11.6235 24.0983 11.8144 25.3276 11.9537 25.6594C12.075 25.936 12.4302 26.3225 12.5948 26.6195C12.6347 26.6906 12.5335 26.673 12.5418 26.6876C12.6403 26.8576 12.7065 26.8624 12.7978 27.1075C12.8452 27.2361 12.7982 27.4102 12.8454 27.5371C13.1887 28.4605 13.5986 29.3515 13.848 30.3192C13.891 30.4867 13.7953 30.6599 13.8227 30.7994C13.8555 30.9674 13.953 31.0677 14.0052 31.2073C14.015 31.2336 14.0232 31.2612 14.029 31.2907C14.0655 31.4761 13.9852 31.7662 14.0253 31.8876C14.0652 32.0101 14.1529 31.7732 14.1573 32.011C14.1589 32.1199 14.0366 31.9472 14.0551 32.0788C14.1128 32.4872 14.3073 33.0528 14.2439 33.5047C14.2694 33.4824 14.2913 33.4532 14.3151 33.4265C14.3568 33.8964 14.3271 34.3173 14.3462 34.8026C14.3531 34.9742 14.4482 35.277 14.4521 35.446C14.4563 35.6152 14.3688 35.6927 14.3677 35.8276C14.367 35.8827 14.4463 35.8606 14.4449 35.8976C14.4243 36.3648 14.2776 36.6173 14.2606 37.1054C14.2193 37.8327 14.1826 38.5625 13.8284 39.3696C13.1654 40.4946 12.3405 41.1535 11.389 41.8008C11.3249 41.842 11.3328 41.958 11.2412 42.0277C11.0992 42.1345 11.0471 42.0568 11.0254 42.0651C10.881 42.1177 10.9761 42.1654 10.7896 42.2567C10.3802 42.4631 9.6413 42.6385 9.16844 42.7066C8.81295 42.7665 8.46085 42.7909 8.1102 42.771C7.4739 42.736 6.84795 42.6621 6.16639 42.4266C6.09338 42.4008 6.18687 42.3071 6.06658 42.255C5.24671 41.8392 4.9347 41.8593 4.15433 40.8895C3.87759 40.5096 3.59438 39.9371 3.45678 39.3027C3.17358 37.9844 3.92737 36.9081 4.38206 36.2885C4.38229 36.2887 4.38252 36.2888 4.38275 36.289C4.4418 35.8223 4.84429 35.4475 5.26225 35.2701C4.57598 36.4747 3.59158 37.6334 3.88754 39.1929C4.12318 40.222 4.8322 41.2213 5.85938 41.7286C6.57312 42.0951 7.37366 42.2448 8.16033 42.2743C10.236 42.2698 11.8001 40.8242 13.0198 39.4931C13.1574 39.3252 13.3044 39.3008 13.3882 39.1457C13.3965 39.1295 13.4039 39.1118 13.4104 39.0921C13.4211 39.0584 13.2934 39.0974 13.3286 38.9968C13.718 37.6113 13.8754 36.0017 13.73 34.5543C13.6842 34.1654 13.5674 34.1119 13.505 33.7751C13.5633 33.8298 13.6218 33.8636 13.6794 33.9108C13.685 33.0415 13.5763 32.1759 13.4164 31.3188C13.2858 30.6181 13.0935 29.9185 12.8853 29.2244C12.8648 29.1556 12.9653 29.1138 12.9458 29.0402C12.9069 28.8926 12.7471 28.7919 12.6999 28.6673C12.638 28.5047 12.7086 28.4459 12.6498 28.299C12.6206 28.2271 12.551 28.2774 12.5057 28.1143C12.5019 28.1007 12.5804 28.0617 12.5301 27.9599C12.3928 27.6788 12.0891 27.1234 11.9678 26.898C11.8143 26.6082 11.8273 26.3171 11.7846 26.2014C11.668 25.8886 11.5485 25.9511 11.4286 25.6952C10.5724 23.8851 9.76038 22.1379 8.69828 20.378C8.63155 20.2671 8.25604 19.9373 8.13654 19.7319C8.09696 19.6625 7.91033 19.2853 7.88004 19.2306C7.75666 19.0081 7.71748 18.7749 7.65921 18.6461C7.54554 18.3946 7.26411 18.2127 7.17346 18.0956C7.01494 17.8911 6.78204 17.4895 6.72669 17.3958C6.59297 17.169 6.78688 17.1486 6.6514 17.0116C6.61131 16.9714 6.52958 17.0921 6.42466 16.9275C6.33673 16.7887 6.38492 16.6768 6.33962 16.572C6.29401 16.467 6.05165 16.3769 6.0174 16.316C5.84033 15.9979 5.83752 15.8038 5.62759 15.4642C5.45466 15.1877 4.57735 13.9294 4.4793 13.837C4.04017 13.4397 4.6021 14.2067 4.62872 14.2581C4.75434 14.5186 4.67807 14.5154 4.93334 14.6952C4.75927 15.1149 5.72635 15.5608 5.48163 15.9942C5.85921 16.0419 5.83874 16.2842 5.92477 16.5285C6.04308 16.8652 6.04445 16.5501 6.1822 16.7638C6.23699 16.8491 6.27972 17.1635 6.3754 17.2793C6.47131 17.3954 6.59119 17.3938 6.70388 17.5607C6.90644 17.8601 7.01876 18.1267 7.07609 18.447C7.15119 18.4648 7.22438 18.4797 7.29915 18.4971C7.36096 18.7045 7.42313 18.9126 7.48356 19.1185C7.50608 19.0654 7.5289 19.0121 7.55138 18.959C7.5893 19.0068 7.62699 19.055 7.66457 19.1032C7.71104 19.3121 7.75695 19.5109 7.80366 19.7265C8.33185 20.0643 8.04443 20.0483 8.17716 20.3342C8.30937 20.6201 8.53851 20.6945 8.66347 20.9017C8.83167 21.1812 8.92505 21.3002 9.08162 21.5899C9.17244 21.7576 9.20253 22.1144 9.27831 21.7633C9.59491 22.2683 10.0545 22.9492 10.2206 23.4645C10.2699 23.6161 10.1036 23.4682 10.108 23.4963C10.1318 23.6343 10.2936 23.6748 10.343 23.8053C10.4254 24.0218 10.5453 24.4602 10.6056 24.6294C10.6944 24.8741 11.0179 25.1681 11.0464 25.2005C11.2068 25.3809 11.1137 25.4945 11.1541 25.5573C11.3853 25.9186 11.4746 25.9832 11.2759 26.2205C11.432 26.269 11.8046 26.6047 11.6625 26.7909C11.8326 26.7203 11.9563 27.0863 12.0871 27.2859C12.0543 27.3464 12.022 27.4073 11.9885 27.4675C12.4822 27.8008 12.6025 28.8156 12.7473 29.4361C12.7512 29.4514 12.8916 29.4385 12.8903 29.5422C12.8897 29.5489 12.8275 29.5571 12.8386 29.6224C12.8814 29.8402 12.9347 30.6602 12.9504 30.7546C13.0216 31.0909 13.1324 31.1279 13.182 31.3302C13.1846 31.3411 13.187 31.3516 13.1891 31.3618C13.2395 31.607 13.1641 31.6664 13.2199 31.9145C13.2464 32.0341 13.3859 32.127 13.399 32.3216C13.4066 32.4367 13.3136 32.4635 13.3194 32.5545C13.3391 32.8779 13.4305 33.1083 13.3401 33.407C13.6522 33.4469 13.4442 33.6082 13.4361 33.7525C13.4041 34.3345 13.5791 35.0381 13.5621 35.5358C13.5118 36.7736 13.3273 38.0195 12.8645 38.8792C12.7776 39.0137 12.6064 39.2116 12.439 39.3857C12.2828 39.5461 12.3522 39.6943 12.1685 39.8575C12.0843 39.9308 11.9274 39.925 11.791 40.0399C11.6824 40.1312 11.5559 40.3063 11.4115 40.4135C11.373 40.4422 11.3072 40.3616 11.2511 40.4014C10.821 40.7046 10.4168 41.0283 9.94917 41.2756C9.7745 41.3672 9.61706 41.2721 9.72599 41.489C9.63535 41.4579 9.55156 41.4307 9.46996 41.394C9.25742 41.611 9.0101 41.5078 8.68011 41.5687C8.64858 41.5775 8.38033 41.7489 8.24228 41.6121C8.2236 41.6962 8.24001 41.7707 8.22864 41.8474C8.22037 41.8483 8.2119 41.8489 8.20326 41.849C8.03814 41.8518 7.82271 41.7311 7.72398 41.704C7.61923 41.6762 7.52722 41.7709 7.4942 41.7654C7.36991 41.7428 7.43034 41.6056 7.4214 41.6014C6.89979 41.332 6.95753 41.4183 6.55028 41.5053C6.43833 41.5311 5.98212 41.1327 5.79726 41.2073C5.83003 41.1447 5.89072 41.1092 5.93336 41.0563C5.79618 40.9515 5.66742 40.8374 5.55017 40.7163C5.53414 40.7911 5.52615 40.8716 5.51164 40.9466C5.26613 40.681 4.94676 40.5693 4.76831 40.3133C4.67078 40.1677 4.81054 40.1039 4.73078 40.0377C4.71516 40.0242 4.64572 40.1055 4.60837 40.0583C4.34502 39.71 4.33989 39.4658 4.27271 39.0946C4.26519 39.0484 4.25834 39 4.25226 38.9485C4.23037 38.746 4.04066 38.5262 4.2248 38.2232C4.24071 38.1888 4.47049 37.9509 4.33493 37.682C4.42775 37.6515 4.48534 37.6186 4.56118 37.6034C4.43124 37.0949 4.67993 37.3314 5.03622 36.9435C5.21345 36.7363 5.78054 35.9943 5.98362 35.7584C6.09679 35.6157 6.00265 35.5183 6.0222 35.4918C6.14308 35.3344 6.23439 35.4304 6.35397 35.2931C6.47185 35.1577 6.55299 34.8908 6.70736 34.7822C6.82606 34.6991 6.83974 34.8988 6.96995 34.7216C6.99716 34.6845 6.80843 34.6548 7.02212 34.5572C7.05513 34.5408 7.43513 34.4442 7.50561 34.4373C7.40725 34.6093 7.05261 35.03 6.926 35.1849C6.15221 36.1105 4.65829 37.8398 5.0086 38.907C5.38276 40.2608 6.75275 40.9409 8.28185 41.0703C9.29889 41.1706 10.4461 40.5507 11.2106 39.9884C11.4606 39.8042 11.709 39.7761 11.8706 39.6438C12.0299 39.5104 11.8132 39.5358 11.9526 39.4153C12.0889 39.2957 12.2492 39.2605 12.3639 39.1393C12.4882 39.0091 12.6152 38.8505 12.6621 38.7763C13.0304 38.0974 13.1505 36.9285 13.1689 35.9124C13.1734 35.5859 13.0581 35.3307 13.0433 35.0351C13.0374 34.9204 13.1746 34.907 13.1686 34.826C13.1029 33.9381 12.8739 33.1337 12.7492 32.2574C12.7126 32.0011 12.7233 31.7234 12.711 31.4523C12.7066 31.3417 12.6974 31.2321 12.6785 31.1268C12.6267 30.8362 12.4747 30.5485 12.4055 30.2962C12.3671 30.1574 12.4472 30.0552 12.4408 30.0019C12.4165 29.8168 12.3109 29.9144 12.2845 29.824C12.2102 29.5723 12.3209 29.4085 12.2334 29.179C12.1987 29.0894 12.1091 29.1322 12.0501 29.0054C11.9746 28.8444 12.0819 28.8767 12.0431 28.7554C12.0409 28.7481 11.9826 28.7949 11.9575 28.7323C11.7996 28.3385 11.5503 27.8483 11.3978 27.4689C11.0775 26.6689 10.8403 25.8394 10.502 25.1025C10.4158 24.916 10.3579 25.0061 10.3246 24.9499C10.1645 24.6805 10.2119 24.5324 10.0244 24.2598C9.99327 24.2144 9.77808 24.0794 9.70715 23.8796C9.6691 23.7722 9.67776 23.6215 9.64778 23.5279C9.61777 23.4343 9.50776 23.4769 9.4518 23.3754C9.34924 23.1906 9.45028 23.205 9.28961 22.9473C9.22515 22.8435 8.92906 22.5447 8.77921 22.2688C8.53483 21.8175 8.29846 21.2186 7.98498 20.6978C7.87778 20.5191 7.63627 20.3535 7.46653 20.0798C7.25773 19.7425 6.89811 19.114 6.6818 18.7679C6.57201 18.592 6.67052 18.5123 6.66179 18.4886C6.60691 18.3361 6.52209 18.4653 6.47016 18.3727C6.39909 18.246 6.41375 18.0752 6.34792 17.9586C6.30605 17.8845 6.21131 17.9287 6.20076 17.9136C5.80844 17.3598 5.49109 16.8455 5.11941 16.2836C4.11792 14.7635 3.09147 13.2526 2.16255 11.6375C1.34253 9.98201 0.0458694 8.41117 0.637601 5.86414C0.807146 5.45917 0.938576 5.50408 1.14784 5.19527C1.14833 5.19458 1.14883 5.19388 1.14932 5.19319C1.31073 4.96591 1.28297 4.57041 1.67058 4.61043C1.62945 4.56224 1.59602 4.53232 1.55912 4.48788C2.0219 4.11844 2.38255 3.64969 2.82664 3.27094C3.15392 2.99219 3.46899 2.7738 3.8051 2.55988C4.10617 2.37241 4.13558 2.48433 4.32603 2.20504C5.68299 1.51238 7.17082 1.01492 8.65021 0.965051C8.96169 0.686361 9.31584 0.79628 9.78977 0.804899C9.84882 0.806341 9.78144 0.723559 9.95592 0.723034C10.1512 0.723341 10.2638 0.822946 10.5418 0.839575C10.5771 0.841796 10.615 0.842681 10.6561 0.841891C10.7502 0.837517 11.4619 0.704434 11.7234 0.7949C11.9832 0.881214 12.3603 0.951731 12.6235 1.04954C12.5899 0.989922 12.5465 0.931953 12.5084 0.873048C12.6443 0.875608 12.7851 0.880588 12.9215 0.886469C12.9336 0.955642 12.9454 1.02488 12.9562 1.09438C13.0427 1.04002 13.1297 0.987076 13.2181 0.933313C13.3431 1.30008 13.1806 1.16105 13.5746 1.13217C13.7704 1.1191 13.9133 1.20548 14.1133 1.20859C14.1862 1.20973 14.2515 1.11895 14.3321 1.12247C14.5293 1.13234 14.3882 1.24549 14.5058 1.27068C14.6235 1.29589 14.8291 1.18559 15.0238 1.30784C14.7375 1.51509 15.3836 1.597 15.476 1.40605C15.5509 1.42824 15.6116 1.4563 15.696 1.47693C15.4575 1.96564 15.9555 1.72541 16.1358 1.71415C16.3137 1.70059 16.2569 1.8347 16.2941 1.84256C16.4013 1.86663 16.3488 1.78215 16.421 1.80783C16.9 1.98114 17.2983 2.26036 17.7338 2.49592C17.7966 2.53007 17.7786 2.42818 17.8486 2.47416C17.9187 2.52044 17.9503 2.62975 18.0607 2.68442C18.0903 2.69923 18.1344 2.64149 18.1793 2.66662C19.1202 3.20168 19.914 3.84462 20.7452 4.53067C20.8199 4.59253 20.9626 4.54385 21.1038 4.66743C21.2438 4.78982 21.3814 5.05204 21.5469 5.21533C21.551 5.21932 21.5551 5.22324 21.5591 5.2271C21.6048 5.27044 21.6881 5.20192 21.7482 5.25904C21.95 5.45153 22.0725 5.68096 22.2737 5.89082C22.6131 6.24479 23.027 6.56903 23.3206 6.98043C23.3752 7.05722 23.3007 7.10691 23.3739 7.22515C23.497 7.42698 23.5362 7.27726 23.5809 7.30132C23.7275 7.38301 23.6289 7.53195 23.7611 7.61869C23.7812 7.6318 23.8377 7.54068 23.8523 7.55543C24.0755 7.79338 23.8996 7.95525 24.2128 8.14499C24.2903 8.469 23.9411 8.09565 23.8527 8.10532C23.6364 8.12004 23.6815 8.50626 23.7421 8.69744C23.7942 8.86099 23.8827 8.79597 23.9216 8.84812C24.1289 9.12355 24.4331 9.54425 24.5153 9.79531C24.5663 9.94602 24.3851 9.72604 24.3941 9.81366C24.4025 9.89927 24.4988 9.90026 24.4584 10.0152C24.4201 10.1322 24.2393 10.372 24.1071 10.3917ZM1.59879 7.39583C1.24637 7.11513 1.09323 6.18538 1.61378 5.58018C1.81481 5.33608 2.02144 5.12431 2.19228 4.96084C2.65768 4.5131 3.29436 4.41006 2.87129 4.13356C2.36842 4.58393 2.0228 5.01259 1.56849 5.54276C1.55036 5.56413 1.53257 5.58597 1.51515 5.60832C1.45047 5.66396 1.18237 6.08394 1.14714 6.26312C1.11939 6.35999 1.03985 6.34225 1.01885 6.47554C1.01353 6.50557 1.09999 6.67571 1.09525 6.73278C1.06052 6.91727 0.960269 7.51914 0.986221 7.5936C1.03952 7.81267 1.14745 7.70349 1.18876 7.79316C1.33157 8.0828 1.157 8.1518 1.30956 8.44363C1.33895 8.50032 1.54434 8.60682 1.60329 8.82742C1.62581 8.91483 1.60866 9.10308 1.63618 9.15997C1.79534 9.49888 2.07721 9.84651 2.21142 10.1628C2.32471 10.428 2.18068 10.4199 2.23138 10.5582C2.28358 10.6976 2.49751 10.7912 2.55354 10.8789C2.64294 11.0198 2.66741 11.2387 2.69148 11.2801C3.20227 12.1601 3.73743 12.8614 4.27753 13.672C3.98203 13.0836 3.68637 12.4919 3.41462 11.9012C3.12045 11.6511 3.31469 11.7437 3.23002 11.5116C3.16363 11.3274 2.947 11.3939 2.84878 11.1634C2.84888 11.1636 2.84898 11.1638 2.84907 11.1639C2.80089 11.049 2.79463 10.7146 2.61426 10.5037C2.60773 10.496 2.49403 10.5276 2.39816 10.3463C2.17275 9.92077 1.82293 9.3037 1.66258 8.79028C1.61623 8.64145 1.73974 8.62999 1.69739 8.45857C1.66906 8.33925 1.51034 8.20858 1.48294 8.00587C1.45161 7.75653 1.61438 7.58678 1.32464 7.46091C1.41658 7.43234 1.50942 7.42551 1.59879 7.39583ZM13.0029 1.69156C13.0406 1.70492 13.4794 2.06938 13.3835 1.73436C12.7455 1.49799 12.0206 1.50601 11.3231 1.40783C11.5538 1.72937 11.9529 1.62094 12.4432 1.64217C12.4434 1.64219 12.4436 1.64221 12.4438 1.64223C12.4666 1.64326 12.3644 1.71629 12.4946 1.71337C12.5585 1.71184 12.813 1.61083 13.0029 1.69156Z" fill="white" fill-opacity="0.61"/>
</svg>
