<svg width="23" height="49" viewBox="0 0 23 49" fill="none" xmlns="http://www.w3.org/2000/svg">
<path d="M10.3802 22.6317C11.3114 22.0686 12.2663 21.6455 13.3824 21.4139C13.6373 21.3639 13.6319 21.4515 13.7387 21.4421C13.9334 21.4246 14.2515 21.285 14.3012 21.2798C14.5982 21.2415 14.4979 21.4006 14.5382 21.4012C14.9896 21.4241 14.8447 21.2622 15.3087 21.2547C15.3225 21.2549 15.3364 21.2551 15.3504 21.2555C15.8526 21.2653 16.5007 21.3479 17.1265 21.487C17.3509 21.5414 17.2273 21.6144 17.71 21.7406C18.0476 21.8057 19.1597 22.1718 19.4855 22.6191C19.4579 22.6613 19.373 22.6681 19.3213 22.6952C19.9523 22.9303 20.1902 23.1308 20.663 23.7532C20.7119 23.8199 20.7632 23.8919 20.8175 23.9706C20.9048 24.0982 21.0643 24.1634 21.1967 24.4179C21.3222 24.6772 21.2307 24.7439 21.487 25.2616C21.5723 25.4483 21.7124 25.5302 21.8153 25.8404C21.9577 26.2643 22.0314 26.8937 22.0143 27.4682C22.0071 28.1099 21.8713 28.7415 21.7655 29.1071C21.347 30.4814 20.8939 31.2322 19.9486 32.0154C19.8744 32.0739 19.9637 31.8615 19.8323 31.9717C19.7009 32.0814 19.6452 32.2985 19.6128 32.3277C19.4156 32.5092 19.0316 32.7187 18.7052 32.8753C18.4577 32.9975 18.2382 33.0875 18.1467 33.1465C17.6017 33.4742 18.2063 33.2761 17.3858 33.6426C16.5816 33.991 15.3467 33.9516 14.5496 33.82C13.6256 33.6755 13.2627 33.8246 12.6789 33.3672C11.924 33.1284 11.2069 32.8174 10.5127 32.4817C9.09667 31.8071 7.62853 30.853 6.70766 29.4283C6.75633 29.4047 6.80556 29.3819 6.85483 29.3591C6.71704 29.2185 6.58519 29.0735 6.45754 28.9215C6.50682 28.9277 6.55529 28.932 6.60399 28.9374C6.28503 28.5518 6.0319 28.1528 5.82223 27.7071C5.64717 27.3322 5.50484 26.9109 5.42804 26.4203C5.42475 26.3994 5.54039 26.4333 5.5397 26.4156C5.51187 26.1751 5.39378 25.9153 5.3946 25.7C5.38607 25.1733 5.65753 24.3493 5.36045 24.7106C5.40686 24.0743 5.45219 23.4091 5.4728 22.7665C5.49269 22.1939 5.55336 21.6458 5.67277 21.1566C5.79135 20.6815 5.99578 20.5923 6.06555 20.3726C6.13776 20.1573 5.96671 20.227 5.98453 20.1476C6.0867 19.6633 6.42577 18.9105 6.61247 18.9136C6.59634 18.7979 6.58604 18.6726 6.57566 18.5525C6.68503 18.6748 7.416 17.3499 7.70495 17.0667C7.75183 17.0116 7.81872 17.0549 7.853 17.0133C8.24155 16.5527 8.25968 16.3642 8.60937 15.9752C8.73412 15.8415 8.61837 16.1317 8.92463 15.7774C8.95248 15.7483 8.84922 15.6615 9.28046 15.3074C9.96472 14.7332 11.3274 13.7672 12.199 13.2575C12.2702 13.215 12.1381 13.4695 12.4336 13.2305C12.5405 13.1436 12.4331 13.1009 12.7036 12.9124C13.745 12.1858 14.8843 11.4247 15.5086 10.3563C15.5731 10.4532 15.4173 10.8929 15.7422 10.302C15.7906 10.2064 15.6654 10.2204 15.6878 10.1786C15.7975 9.97399 15.9147 9.80269 16.0218 9.60459C16.0973 9.46321 16.1703 9.31781 16.2331 9.15503C16.2814 9.02997 16.227 8.96658 16.2822 8.81154C16.3621 8.58538 16.5102 8.53049 16.5887 8.26084C16.714 7.83077 16.649 7.7291 17.0622 7.32352C18.0735 5.13753 19.1221 2.48053 16.714 1.55331C16.2687 1.31822 15.8137 1.22162 15.3589 1.304C14.6901 1.51583 14.1778 2.05385 13.6856 2.72819C13.5443 2.9296 13.397 2.88891 13.2183 3.25894C13.1713 3.34197 12.9921 3.97708 12.7036 3.94385C12.6453 4.11941 12.596 4.2309 12.5537 4.37172C12.6331 4.28669 12.7245 4.18476 12.8087 4.10408C12.743 4.22039 12.6782 4.35957 12.6429 4.45353L12.6228 4.49987C12.4527 4.89401 12.3682 5.36638 12.2744 5.81826C12.188 6.24964 12.1562 5.91716 12.097 6.18235C12.0392 6.45153 12.0373 6.57027 11.822 6.87533C11.9281 7.17301 11.776 7.32074 11.6868 7.81038C11.6772 7.86302 11.6906 8.17695 11.6426 8.43052C11.6083 8.61172 11.4973 8.65387 11.4784 8.94974C11.4731 9.00033 11.5373 9.63036 11.5355 9.83101C11.5284 10.137 11.3699 10.625 11.3665 10.6832C11.3279 11.2322 11.3716 11.5648 11.354 11.8966C11.344 12.0723 11.3187 12.2645 11.2554 12.4878C11.3904 12.5992 11.5162 13.0846 11.5757 13.487C11.6378 13.9924 11.6377 15.0949 11.9447 15.1591C11.9849 15.7882 12.0386 15.6989 12.2461 16.3994C12.4319 17.0357 12.8804 18.7623 13.0665 19.2744C13.2519 19.791 13.3143 19.4873 13.4016 19.687C13.545 20.0135 13.377 19.8666 13.4548 20.0983C13.6732 20.748 13.8806 21.3137 14.1271 21.926C14.0617 21.9839 13.9967 22.0444 13.9317 22.1035C13.9674 22.128 14.003 22.1524 14.0387 22.177C14.0806 22.3126 14.1301 22.4651 14.1664 22.5901C14.1699 21.4274 14.4639 23.6194 14.6296 24.2533C14.777 24.7863 15.1798 25.6312 15.3616 26.2165C15.4062 26.3585 15.2978 26.2803 15.3071 26.3093C15.4164 26.6504 15.4871 26.6882 15.588 27.1603C15.6406 27.4096 15.5909 27.6861 15.6401 27.9292C15.9998 29.7099 16.3623 31.4458 16.4545 33.2762C16.4698 33.5872 16.3446 33.8588 16.3447 34.1191C16.3442 34.4664 16.436 34.6957 16.4423 35.0121C16.4427 35.0337 16.4428 35.0556 16.4423 35.078C16.4355 35.4111 16.304 35.8955 16.3239 36.1257C16.3433 36.3559 16.4682 35.9617 16.4341 36.3835C16.4186 36.578 16.3251 36.2346 16.3225 36.4748C16.3168 37.2172 16.4263 38.3273 16.1924 39.1513C16.2249 39.1187 16.2564 39.0713 16.2884 39.0294C16.2002 39.6713 16.0397 40.2446 15.8502 40.8331C15.779 41.052 15.7099 41.2765 15.6419 41.5131C15.5573 41.8083 15.4862 42.369 15.394 42.6676C15.3025 42.965 15.1738 43.0732 15.0889 43.3099C15.0533 43.407 15.1417 43.3955 15.1163 43.4611C14.7841 44.2785 14.4522 44.6776 13.9112 45.4428C13.5094 45.9924 13.0082 46.4735 12.464 46.8751C10.4042 48.5313 7.05257 49.3685 4.52623 47.8178C4.47673 47.7904 4.42557 47.7799 4.36964 47.7708C4.28597 47.7575 4.19408 47.7497 4.08265 47.689C3.79975 47.5325 3.84069 47.4431 3.80753 47.4169C3.59229 47.2339 3.63194 47.3753 3.33241 47.1318C2.63953 46.6095 1.89622 45.3772 1.60921 44.6344C1.47094 44.3201 1.3533 44.0157 1.24457 43.7173C0.786899 42.4076 0.33908 41.1342 0.499015 39.4947C0.517522 39.3507 0.620673 39.4655 0.667125 39.2231C0.990707 37.9058 1.31429 37.3545 2.19091 36.5427C2.43892 36.3319 2.74388 36.1014 3.16112 35.8752C4.20524 35.2131 6.4093 34.9496 7.99815 35.897C9.06732 36.4443 10.2538 37.3418 10.5542 38.5316C10.5539 38.5317 10.5536 38.5318 10.5533 38.5318C10.7249 38.8198 10.8168 39.1905 10.8166 39.5602C10.8293 40.133 10.6087 40.8361 10.1975 41.282C10.4754 40.7046 10.5338 40.0875 10.5073 39.5488C10.4941 37.8379 9.00703 36.8229 7.81351 36.2594C6.18469 35.3624 3.94379 35.609 2.48877 36.9008C1.95617 37.3335 1.50469 37.9139 1.25163 38.5868C0.635643 40.2613 1.14694 42.0133 1.72439 43.5537C2.2478 45.0639 3.27965 46.4777 4.71312 47.1995C6.19476 48.0569 7.98667 48.2266 9.56079 47.7323C9.99081 47.6007 10.2092 47.649 10.5513 47.4656C10.6082 47.4341 10.415 47.4146 10.5901 47.3214C11.1103 47.0417 11.6136 46.7217 12.1025 46.3697C13.9687 45.1673 14.7214 42.8708 15.2042 40.8481C15.2208 40.7825 15.2354 40.7213 15.2484 40.6639C15.3666 40.1132 15.3097 39.9501 15.3844 39.3868C15.4176 39.5043 15.4585 39.5851 15.4917 39.6914C15.8952 38.1666 15.7859 36.5636 15.8368 34.9967C15.8736 33.6411 15.7806 32.2816 15.6191 30.9257C15.6033 30.7932 15.7087 30.7623 15.6939 30.6223C15.6642 30.3419 15.5061 30.0937 15.4634 29.8534C15.4069 29.5388 15.4825 29.4697 15.4253 29.1803C15.3967 29.0391 15.3237 29.0966 15.2793 28.7865C15.2755 28.7606 15.3582 28.7272 15.3069 28.5249C15.1699 27.9705 14.8392 26.8516 14.7009 26.4022C14.5283 25.8261 14.5275 25.3265 14.4754 25.1047C14.3329 24.5059 14.2062 24.5543 14.0612 24.0562C13.0501 20.4997 11.7854 17.1593 11.0839 13.4716C11.0394 13.2403 10.7831 12.3972 10.7964 11.951C10.7965 11.9377 10.7969 11.9192 10.7977 11.8966C10.8034 11.6642 10.85 11.0247 10.8585 10.9199C10.8873 10.4548 11.0052 10.0536 11.0442 9.80221C11.119 9.31007 11.0438 8.7419 11.0673 8.46917C11.1018 7.99155 11.2731 7.1587 11.3211 6.96517C11.4316 6.49394 11.5675 6.69077 11.6084 6.34399C11.6212 6.24408 11.4637 6.31229 11.5551 5.96466C11.6342 5.67399 11.7679 5.58032 11.8446 5.39351C11.9206 5.20514 11.8981 4.79546 11.9489 4.67667C12.0145 4.51942 12.083 4.38031 12.1485 4.2711C12.3335 3.92316 12.5167 3.66945 12.7876 3.20834C12.9398 2.95132 13.3708 2.21729 13.9447 1.6747C14.5041 1.10683 15.2285 0.882988 15.3362 0.859414C15.832 0.71635 15.672 0.709288 15.3489 0.748111C15.025 0.789016 14.6068 1.00802 14.5656 1.03258C14.0905 1.27505 14.105 1.19421 13.7846 1.63478C13.1078 1.68797 12.6422 3.42382 12.1065 3.61331C12.1357 3.85719 12.0968 4.04289 12.028 4.21676C11.9369 4.41519 11.8011 4.60691 11.6855 4.83687C11.4002 5.4271 11.7179 5.00866 11.5782 5.45779C11.5237 5.63197 11.2526 6.11976 11.2084 6.39605C11.1635 6.66944 11.236 6.80916 11.1694 7.17218C11.0524 7.82702 10.9298 8.34285 10.7431 8.88737C10.7848 8.99767 10.8287 9.09457 10.872 9.20136C10.7749 9.57733 10.6867 9.96111 10.6073 10.3425C10.658 10.2834 10.7092 10.225 10.7601 10.1674C10.7599 10.2787 10.7599 10.3917 10.7605 10.5057C10.6709 10.8733 10.5941 11.2329 10.5169 11.618C10.5431 11.7231 10.565 11.8153 10.5828 11.8966C10.7604 12.6207 10.5636 12.4268 10.5849 12.9677C10.6229 13.5612 10.8463 13.8717 10.938 14.3065C11.0694 14.901 11.1567 15.1617 11.3066 15.7584C11.3917 16.0959 11.4171 16.7223 11.5105 16.1785C11.8321 17.2351 12.3652 18.6434 12.5804 19.6116C12.6442 19.8972 12.4506 19.5521 12.457 19.6019C12.4921 19.8519 12.6731 20.0071 12.7364 20.2565C12.8407 20.6675 13.0044 21.4794 13.0845 21.8044C13.1999 22.2684 13.5768 22.9401 13.61 23.0099C13.799 23.4034 13.7044 23.5519 13.7529 23.6811C14.0291 24.4208 14.127 24.5718 13.9257 24.8866C14.0984 25.0476 14.5183 25.8203 14.3706 26.07C14.5505 26.0285 14.6957 26.7232 14.8381 27.1374C14.8047 27.2285 14.7717 27.3207 14.7373 27.4114C15.268 28.2234 15.3737 30.0608 15.4622 31.2472C15.4648 31.2769 15.6083 31.3143 15.5971 31.4972C15.5957 31.5088 15.5324 31.4972 15.537 31.6178C15.5646 32.0167 15.5024 33.5334 15.4951 33.7041C15.5048 34.3413 15.6034 34.4517 15.6079 34.8418C15.6082 34.8961 15.6073 34.9454 15.6054 34.9909C15.5901 35.3794 15.5159 35.4851 15.5257 35.926C15.531 36.1568 15.6538 36.3659 15.6366 36.7271C15.6263 36.9408 15.5303 36.9615 15.5214 37.1303C15.4884 37.7275 15.5328 38.1706 15.3559 38.6781C15.6457 38.8462 15.3923 39.0741 15.3279 39.3232C15.2257 39.7225 15.1258 40.1589 15.0113 40.5973C14.8294 41.2961 14.687 41.9972 14.5056 42.5216C14.0031 44.0806 13.1491 45.3204 11.9006 46.0875C10.9707 46.6871 9.97136 47.1621 8.89928 47.3769C8.49344 47.4505 8.4125 47.6183 7.9678 47.6335C7.76761 47.6356 7.56648 47.5266 7.25337 47.4938C7.00149 47.468 6.629 47.4573 6.31844 47.3626C6.23561 47.3374 6.2604 47.2368 6.14302 47.1963C5.75645 47.0608 5.38222 46.8958 5.01503 46.6974C4.53063 46.4351 4.07638 46.1417 3.68565 45.7645C3.42817 45.5144 3.41769 45.2488 3.25917 45.4415C3.22325 45.2945 3.19098 45.1551 3.17248 45.0159C2.78386 44.671 2.74271 44.2214 2.46716 43.5802C2.45515 43.5524 2.39497 43.4661 2.32856 43.3478C2.2276 43.1689 2.1148 42.9209 2.13173 42.7244C2.04364 42.7282 1.98771 42.7945 1.91103 42.8083C1.78963 42.5249 1.76956 42.0466 1.73893 41.8471C1.70606 41.6476 1.57368 41.5338 1.56205 41.4733C1.52067 41.2422 1.67559 41.2754 1.67483 41.2573C1.69268 40.1849 1.65017 40.3337 1.48262 39.6673C1.41463 39.4778 1.88035 38.4986 1.88092 38.2454C1.94678 38.2723 1.97076 38.3555 2.02202 38.4022C2.18887 38.1365 2.39556 37.895 2.62835 37.6846C2.53346 37.6842 2.42736 37.6989 2.33466 37.7014C2.49523 37.5479 2.64185 37.4031 2.78914 37.2619C3.09068 36.9736 3.37331 36.6992 3.7152 36.5264C4.00821 36.3846 4.03311 36.5433 4.19145 36.4427C4.22321 36.4237 4.12789 36.3513 4.22847 36.305C5.06507 35.96 5.51274 36.0311 6.37438 36.1895C6.76066 36.2775 7.17486 36.2218 7.65364 36.5731C7.66806 36.5839 7.68249 36.595 7.69693 36.6065C7.74678 36.643 8.1822 37.0572 8.61155 37.0776C8.66687 37.2058 8.72507 37.2979 8.75386 37.3996C9.51265 37.6187 9.25371 37.7322 9.59724 38.5576C9.65701 38.7394 9.76333 39.0965 9.75205 39.5209C9.76561 40.1664 9.50842 40.8097 9.312 41.0606C9.13027 41.3174 9.21605 41.4042 9.17963 41.4518C9.0272 41.6246 8.92829 41.64 8.81964 41.6867C8.75977 41.7102 8.69557 41.7406 8.5988 41.8009C8.33892 41.9679 7.94721 42.211 7.59464 42.2344C7.32715 42.2488 7.5237 42.0723 7.14027 42.1488C7.06017 42.1624 7.29603 42.3006 6.87992 42.2497C6.81187 42.2477 6.15927 42.0622 6.04447 42.0058C6.38378 41.9755 7.36804 41.8734 7.69203 41.7684C8.02676 41.6841 8.37508 41.5469 8.56549 41.3574C9.11518 40.8651 9.37732 40.3145 9.34862 39.506C9.35824 38.5177 8.536 37.8243 7.30453 37.2583C5.95742 36.5935 4.46769 36.8189 3.29235 37.8669C1.82375 39.0168 2.15838 41.2184 2.84613 43.1714C3.34717 44.7356 4.0876 45.6898 5.2216 46.3538C5.68965 46.6413 6.1573 46.8422 6.60633 46.9653C7.12228 47.1035 7.46665 47.2662 7.83303 47.2771C8.19653 47.2771 7.88504 47.1613 8.20905 47.149C8.53136 47.129 8.78667 47.1758 9.09619 47.1047C10.0159 46.8894 10.916 46.4425 11.7482 45.8743C12.7777 45.1911 13.4801 44.2309 13.9118 43.0396C14.118 42.4875 14.1458 41.9899 14.2966 41.4501C14.355 41.2392 14.4899 41.2683 14.5301 41.1176C14.5851 40.9127 14.6372 40.7113 14.6898 40.5069C15.0501 39.1538 15.0054 37.8933 15.0048 36.4173C15.0087 35.9563 15.0617 35.4629 15.1123 34.9784C15.1379 34.7411 15.1559 34.5057 15.1585 34.2772C15.1654 33.7212 15.0618 33.1488 15.0253 32.6517C15.0051 32.3821 15.0969 32.2301 15.0966 32.1311C15.0928 31.7868 14.9757 31.9186 14.9585 31.7447C14.9087 31.2653 15.0324 31.0076 14.9576 30.5579C14.9275 30.3818 14.8335 30.4186 14.7794 30.1656C14.7095 29.8451 14.8182 29.9502 14.7831 29.7178C14.7812 29.7038 14.7193 29.7608 14.6957 29.6387C14.5447 28.8525 14.2858 27.8845 14.1101 27.1303C13.7502 25.5722 13.4321 24.007 13.004 22.5596C12.8952 22.1938 12.838 22.3186 12.7973 22.205C12.5997 21.6556 12.6411 21.427 12.4127 20.8554C12.3753 20.7618 12.126 20.4103 12.0346 20.0293C11.9862 19.8264 11.9847 19.5676 11.9466 19.3919C11.908 19.2146 11.7889 19.2268 11.7205 19.0174C11.5967 18.6381 11.711 18.7298 11.5224 18.1898C11.4471 17.9737 11.1118 17.2841 10.9507 16.7063C10.6908 15.7743 10.4644 14.5757 10.2896 13.4166C10.2326 13.0251 10.0526 12.5355 10.0435 11.8966C10.0434 11.881 10.0433 11.8653 10.0433 11.8496C10.035 11.0951 10.1336 9.7138 10.2287 8.94602C10.2743 8.55012 10.4047 8.54399 10.4157 8.49567C10.4906 8.19952 10.3345 8.30451 10.369 8.10329C10.4173 7.8271 10.5615 7.59193 10.614 7.34272C10.6472 7.18668 10.5507 7.14238 10.5566 7.10697C10.7515 5.9907 10.99 5.03389 11.4588 3.93842L11.4368 3.98914C11.5092 3.80478 11.5743 3.65995 11.651 3.49584C12.1249 2.51399 12.7109 1.55493 13.655 0.792065C14.5537 -0.0127462 16.2074 -0.246458 17.3058 0.385379C18.1157 0.782286 19.0599 1.44438 19.4175 2.55299C19.759 3.64397 19.5102 4.63862 19.2588 5.48983C18.7063 7.1995 17.9301 8.67451 17.2102 10.1832C16.5506 11.5534 15.4541 12.6008 14.3519 13.4246C13.8816 13.7731 13.7872 13.6762 13.3868 13.9822C12.9855 14.2851 12.7437 14.7845 12.2347 14.7505C12.2589 14.81 12.2849 14.8466 12.306 14.9014C11.4149 15.391 10.6507 16.0265 9.94854 16.6406C9.42864 17.0956 8.99843 17.5148 8.6065 17.991C8.26907 18.4156 8.20335 18.3245 8.07223 18.794C7.28766 19.954 6.90561 21.3617 6.801 22.8334C6.72816 23.8979 6.57161 24.8913 6.62921 25.7997C6.88603 26.2259 6.90381 26.6399 7.07445 27.2156C7.1058 27.3186 7.13977 27.4217 7.18084 27.53C7.21523 27.6187 7.25074 27.4933 7.36063 27.7501C7.50504 28.0676 7.46305 28.2987 7.79085 28.7878C7.86537 28.9385 8.69122 29.7036 8.98639 30.0059C9.2588 30.3373 9.76089 30.7287 10.1325 31.0197C10.1036 30.9385 10.058 30.8496 10.0249 30.7653C10.2255 30.8744 10.4317 30.9789 10.6408 31.0784C10.639 31.1536 10.6385 31.2294 10.6359 31.3044C10.7848 31.3103 10.9331 31.3148 11.0845 31.3175C11.0859 31.3175 11.0873 31.3176 11.0888 31.3176C11.2064 31.7582 10.9799 31.5299 11.619 31.7293C11.9386 31.8256 12.1558 31.9835 12.4825 32.071C12.6008 32.1021 12.707 32.0327 12.8352 32.0639C13.1479 32.1372 12.9274 32.2108 13.1166 32.2711C13.3104 32.3304 13.6216 32.2619 13.9451 32.3996C13.523 32.5983 14.6054 32.7111 14.667 32.4812C14.7883 32.492 14.8889 32.5076 15.0223 32.5058C14.8761 33.045 15.5574 32.6703 15.7826 32.5547C16.02 32.4492 16.0316 32.589 16.0901 32.5738C16.2548 32.5256 16.121 32.4911 16.2363 32.4646C16.854 32.3177 17.4421 32.1167 18.0037 31.7864C18.1363 31.7079 18.2656 31.6264 18.3927 31.539C18.4911 31.4708 18.3575 31.4657 18.4746 31.3914C18.591 31.3167 18.7464 31.3028 18.9022 31.1698C18.9434 31.1345 18.9117 31.0678 18.9756 31.0139C20.0889 30.1023 20.7549 28.927 20.7182 27.5016C20.7144 27.178 20.6886 26.8605 20.6258 26.556C20.5923 26.404 20.4453 26.3208 20.3518 26.0564C20.2615 25.7935 20.1481 25.3443 19.9217 25.0185C19.8625 24.9321 19.7609 24.9731 19.6795 24.8619C19.6311 24.7962 19.5843 24.7307 19.5378 24.6645C19.3279 24.3649 19.1408 24.0785 18.8472 23.8234C18.2451 23.2964 17.4502 23.0489 16.6326 22.8453C16.4771 22.8068 16.5172 22.7221 16.2863 22.6645C15.8851 22.5711 16.0225 22.7205 15.9394 22.7282C15.6657 22.7578 15.5931 22.5803 15.3241 22.6081C15.2829 22.6126 15.3352 22.7178 15.2986 22.7173C15.2887 22.717 15.2791 22.7167 15.2695 22.7164C14.8069 22.7159 14.7329 22.4951 14.1908 22.7097C13.6523 22.6736 14.5012 22.4607 14.5874 22.3908C14.7973 22.1893 14.166 22.0442 13.7863 22.0665C13.4636 22.0797 13.4929 22.19 13.3721 22.2208C12.729 22.3842 11.8213 22.7469 11.3427 22.8995C11.0504 22.9907 11.5361 22.7328 11.3792 22.7604C11.2229 22.7871 11.1644 22.903 10.9822 22.8853C10.8047 22.8642 10.3803 22.7727 10.3802 22.6317ZM15.4083 10.9446C15.1925 12.0387 12.9429 13.6203 11.7421 14.3336C10.7464 14.95 9.73535 15.3035 10.2239 15.5438C11.2309 14.7873 12.0813 14.2105 13.1966 13.4511C13.3149 13.374 14.0193 12.918 14.2529 12.7348C14.3845 12.6346 14.4392 12.6947 14.6134 12.5473C14.6521 12.5149 14.7883 12.2574 14.8634 12.1916C15.1295 11.9849 15.9442 11.3292 16.0214 11.1959C16.2556 10.8643 16.0591 10.9142 16.1402 10.7612C16.3593 10.3188 16.5218 10.2806 16.698 9.93384C16.7261 9.87628 16.7541 9.81064 16.7817 9.73373C16.815 9.64037 16.8132 9.27142 17.0113 8.91195C17.0933 8.76333 17.2915 8.54666 17.3443 8.42715C17.627 7.78774 17.8553 7.03354 18.1179 6.44988C18.3318 5.96851 18.3929 6.14924 18.5105 5.88974C18.6247 5.63404 18.5947 5.25908 18.6377 5.07858C18.7142 4.78121 18.8714 4.43371 18.8851 4.33525C19.2449 2.8515 18.2161 1.49074 16.9828 1.02272C16.6088 0.847467 16.1965 0.735015 15.7748 0.737861C16.19 0.762773 16.5881 0.902656 16.9417 1.10386C17.6253 1.48739 18.2632 2.02725 18.4798 2.73761C18.7857 3.31573 18.585 3.04898 18.5909 3.46265C18.5653 3.79097 18.7855 3.89194 18.6851 4.35158C18.6852 4.3512 18.6853 4.35083 18.6853 4.35045C18.6318 4.58911 18.3595 5.04425 18.2476 5.54261C18.2425 5.56162 18.341 5.6403 18.2052 6.00413C17.9038 6.81499 17.3866 8.03985 16.9382 8.90574C16.8069 9.15972 16.7248 9.05264 16.5621 9.35273C16.4969 9.47271 16.4602 9.62191 16.4057 9.79153C16.364 9.92238 16.3078 10.0629 16.2141 10.2025C15.9378 10.6055 15.6509 10.6621 15.6546 11.0867C15.5635 11.048 15.5 10.9789 15.4083 10.9446ZM10.5563 31.9234C10.5717 31.9344 10.6341 31.9936 10.7173 32.0652C10.9326 32.2532 11.2829 32.5156 11.2008 32.2243C11.0579 32.1375 10.9133 32.0518 10.766 31.9661C9.83433 31.4243 8.81613 30.8729 8.0915 30.0339C8.17091 30.5691 8.84693 30.9932 9.63452 31.4312C9.63485 31.4314 9.63518 31.4316 9.63551 31.4318C9.67314 31.4529 9.47594 31.4312 9.69443 31.5436C9.80078 31.5993 10.2556 31.711 10.5563 31.9234Z" fill="white" fill-opacity="0.61"/>
</svg>
